<svg width="49" height="11" viewBox="0 0 49 11" fill="none" xmlns="http://www.w3.org/2000/svg">
<path d="M5.51562 7.93652C5.51562 7.7041 5.46777 7.49902 5.37207 7.32129C5.27637 7.14355 5.14193 6.98405 4.96875 6.84277C4.78646 6.71061 4.56999 6.59212 4.31934 6.4873C4.07324 6.37793 3.79753 6.27995 3.49219 6.19336C3.02279 6.0612 2.58984 5.89941 2.19336 5.70801C1.80143 5.51204 1.46647 5.29329 1.18848 5.05176C0.910482 4.80566 0.691732 4.52767 0.532227 4.21777C0.377279 3.90332 0.299805 3.55013 0.299805 3.1582C0.299805 2.73438 0.390951 2.35384 0.573242 2.0166C0.755534 1.6748 1.00163 1.38314 1.31152 1.1416C1.62142 0.904622 1.98145 0.724609 2.3916 0.601562C2.80632 0.473958 3.24154 0.410156 3.69727 0.410156C4.18034 0.410156 4.62923 0.485352 5.04395 0.635742C5.46322 0.781576 5.8278 0.986654 6.1377 1.25098C6.44759 1.51986 6.69141 1.84115 6.86914 2.21484C7.05143 2.58398 7.14258 2.99414 7.14258 3.44531H5.51562C5.49284 3.19466 5.43815 2.9668 5.35156 2.76172C5.26953 2.55208 5.15332 2.37207 5.00293 2.22168C4.84798 2.07585 4.65885 1.96191 4.43555 1.87988C4.2168 1.79329 3.96387 1.75 3.67676 1.75C3.42611 1.75 3.19368 1.78418 2.97949 1.85254C2.76986 1.91634 2.58757 2.00749 2.43262 2.12598C2.27767 2.24902 2.1569 2.39714 2.07031 2.57031C1.98372 2.74349 1.94043 2.93717 1.94043 3.15137C1.94499 3.37923 2.00423 3.57975 2.11816 3.75293C2.2321 3.92155 2.38477 4.06966 2.57617 4.19727C2.77214 4.32487 2.99544 4.43652 3.24609 4.53223C3.5013 4.62793 3.7679 4.7168 4.0459 4.79883C4.39681 4.89909 4.73861 5.02441 5.07129 5.1748C5.40853 5.32064 5.71842 5.49837 6.00098 5.70801C6.35189 5.97233 6.63216 6.28906 6.8418 6.6582C7.05599 7.02279 7.16309 7.44434 7.16309 7.92285C7.16309 8.36491 7.06966 8.75456 6.88281 9.0918C6.70052 9.42904 6.45443 9.70931 6.14453 9.93262C5.83008 10.165 5.46549 10.3405 5.05078 10.459C4.63607 10.5729 4.19857 10.6299 3.73828 10.6299C3.25065 10.6299 2.76986 10.5547 2.2959 10.4043C1.82194 10.2493 1.40951 10.026 1.05859 9.73438C0.735026 9.46094 0.477539 9.13965 0.286133 8.77051C0.0992839 8.40137 0.00358073 7.97754 -0.000976562 7.49902H1.63965C1.66243 7.80436 1.72624 8.07096 1.83105 8.29883C1.94043 8.52214 2.08854 8.70671 2.27539 8.85254C2.45768 9.00293 2.67188 9.11458 2.91797 9.1875C3.16862 9.26042 3.44206 9.29688 3.73828 9.29688C3.98893 9.29688 4.22135 9.26725 4.43555 9.20801C4.6543 9.14876 4.84342 9.0599 5.00293 8.94141C5.15788 8.82747 5.28092 8.6862 5.37207 8.51758C5.46777 8.34896 5.51562 8.15527 5.51562 7.93652ZM11.3193 7.28027L10.4307 8.12109V10.5H8.79004V0H10.4307V6.17969L11.1074 5.42773L13.3154 3.10352H15.2842L12.4062 6.18652L15.7012 10.5H13.6777L11.3193 7.28027ZM17.5605 3.10352H21.4844V9.14648H23.6582V10.5H17.5605V9.14648H19.8369V4.46387H17.5605V3.10352ZM19.6865 1.18945C19.6865 1.05729 19.7093 0.936523 19.7549 0.827148C19.8005 0.713216 19.8665 0.615234 19.9531 0.533203C20.0352 0.455729 20.1331 0.396484 20.2471 0.355469C20.3656 0.309896 20.4977 0.287109 20.6436 0.287109C20.8896 0.287109 21.0879 0.350911 21.2383 0.478516C21.3932 0.601562 21.4821 0.761068 21.5049 0.957031C21.5368 1.15755 21.5026 1.33301 21.4023 1.4834C21.3021 1.62923 21.1562 1.72721 20.9648 1.77734C20.8691 1.86393 20.7552 1.9209 20.623 1.94824C20.4909 1.97559 20.3451 1.96419 20.1855 1.91406C20.0215 1.86393 19.8962 1.77507 19.8096 1.64746C19.7275 1.5153 19.6865 1.36263 19.6865 1.18945ZM25.9072 0H29.8926V9.14648H32.1348V10.5H25.9072V9.14648H28.2451V1.36035H25.9072V0ZM34.3154 0H38.3008V9.14648H40.543V10.5H34.3154V9.14648H36.6533V1.36035H34.3154V0ZM47.2422 8.49707C47.2422 8.36947 47.2126 8.25553 47.1533 8.15527C47.0986 8.05501 47.0052 7.95931 46.873 7.86816C46.7318 7.78613 46.5472 7.70866 46.3193 7.63574C46.0915 7.56283 45.8066 7.49447 45.4648 7.43066C45.0365 7.34408 44.6445 7.23698 44.2891 7.10938C43.9382 6.98177 43.6351 6.82682 43.3799 6.64453C43.1292 6.47135 42.9333 6.26628 42.792 6.0293C42.6507 5.79232 42.5801 5.5166 42.5801 5.20215C42.5801 4.90137 42.6507 4.61654 42.792 4.34766C42.9378 4.07422 43.1452 3.83496 43.4141 3.62988C43.6784 3.4248 43.9974 3.26302 44.3711 3.14453C44.7493 3.02604 45.1686 2.9668 45.6289 2.9668C46.1211 2.9668 46.5632 3.02832 46.9551 3.15137C47.347 3.26986 47.6797 3.43392 47.9531 3.64355C48.222 3.85319 48.4294 4.10156 48.5752 4.38867C48.721 4.67578 48.7939 4.98568 48.7939 5.31836H47.1602C47.1602 5.18164 47.1305 5.05176 47.0713 4.92871C47.0166 4.80111 46.9346 4.68717 46.8252 4.58691C46.6976 4.46842 46.5335 4.375 46.333 4.30664C46.1325 4.23372 45.8978 4.19727 45.6289 4.19727C45.3828 4.19727 45.1663 4.22461 44.9795 4.2793C44.7972 4.32943 44.6468 4.40007 44.5283 4.49121C44.4098 4.57324 44.321 4.67122 44.2617 4.78516C44.2025 4.89453 44.1729 5.01074 44.1729 5.13379C44.1729 5.26139 44.1979 5.3776 44.248 5.48242C44.2982 5.58268 44.387 5.67155 44.5146 5.74902C44.6331 5.83105 44.7972 5.90625 45.0068 5.97461C45.221 6.04297 45.4899 6.10449 45.8135 6.15918C46.2646 6.24121 46.6771 6.34147 47.0508 6.45996C47.4245 6.57845 47.7435 6.72428 48.0078 6.89746C48.2721 7.07975 48.4772 7.29395 48.623 7.54004C48.7689 7.78613 48.8418 8.0778 48.8418 8.41504C48.8418 8.74316 48.7643 9.04395 48.6094 9.31738C48.459 9.59082 48.2448 9.82552 47.9668 10.0215C47.6842 10.2174 47.347 10.3701 46.9551 10.4795C46.5632 10.5889 46.1279 10.6436 45.6494 10.6436C45.1162 10.6436 44.6423 10.5729 44.2275 10.4316C43.8174 10.2904 43.4733 10.1035 43.1953 9.87109C42.9128 9.64323 42.6986 9.38118 42.5527 9.08496C42.4069 8.78874 42.334 8.48796 42.334 8.18262H43.9199C43.9336 8.41048 43.9928 8.60417 44.0977 8.76367C44.207 8.91862 44.3438 9.04395 44.5078 9.13965C44.6673 9.23991 44.8496 9.31283 45.0547 9.3584C45.2598 9.39941 45.4671 9.41992 45.6768 9.41992C45.9593 9.41992 46.2054 9.3903 46.415 9.33105C46.6292 9.27181 46.8001 9.19206 46.9277 9.0918C47.0326 9.00977 47.11 8.9209 47.1602 8.8252C47.2148 8.72493 47.2422 8.61556 47.2422 8.49707Z" fill="black"/>
</svg>
